<?xml version="1.0" standalone="no"?>
<!DOCTYPE svg PUBLIC "-//W3C//DTD SVG 20010904//EN"
 "http://www.w3.org/TR/2001/REC-SVG-20010904/DTD/svg10.dtd">
<svg version="1.0" xmlns="http://www.w3.org/2000/svg"
 width="621.000000pt" height="621.000000pt" viewBox="0 0 621.000000 621.000000"
 preserveAspectRatio="xMidYMid meet">
<metadata>
Created by potrace 1.14, written by Peter Selinger 2001-2017
</metadata>
<g transform="translate(0.000000,621.000000) scale(0.100000,-0.100000)"
fill="#000000" stroke="none">
<path d="M2592 5819 c-115 -36 -210 -95 -318 -195 -56 -52 -105 -94 -110 -94
-4 0 -15 7 -24 15 -14 13 -20 12 -50 -3 -35 -17 -35 -17 -35 -89 -1 -55 -5
-77 -19 -92 -10 -11 -26 -34 -36 -53 -10 -18 -23 -32 -30 -30 -25 6 -93 -23
-115 -50 -15 -18 -33 -28 -50 -28 -15 0 -39 -9 -54 -19 -18 -13 -32 -17 -42
-10 -7 5 -33 9 -56 9 -23 0 -48 6 -55 13 -34 34 -77 51 -104 42 -40 -15 -51
-38 -36 -77 17 -46 -1 -61 -31 -26 -21 26 -34 32 -68 29 -10 0 -63 -54 -120
-118 -131 -149 -127 -146 -159 -120 -24 20 -86 90 -153 171 -80 99 -145 151
-262 212 -33 17 -77 42 -97 56 l-38 26 33 24 c17 13 46 32 62 43 37 23 133
118 167 165 33 47 70 142 66 172 -5 36 -33 34 -49 -4 -16 -39 -96 -121 -194
-199 -99 -79 -205 -130 -205 -100 0 5 -9 13 -20 16 -11 4 -27 22 -35 41 -8 19
-22 37 -32 40 -10 3 -25 10 -33 15 -47 30 -99 48 -126 43 -69 -12 -124 -72
-124 -136 0 -29 30 -95 50 -108 4 -3 15 -20 24 -37 9 -18 22 -34 29 -34 6 -1
17 -2 22 -4 6 -1 14 -3 18 -3 5 -1 -16 -30 -47 -64 -86 -97 -138 -242 -130
-363 6 -93 57 -226 124 -325 41 -60 184 -185 245 -214 110 -52 312 -70 369
-33 l27 18 -15 -23 c-48 -73 -144 -125 -234 -128 -29 0 -7 -45 33 -67 41 -22
130 -30 170 -14 15 6 33 -2 76 -35 99 -76 113 -122 54 -188 -19 -22 -35 -47
-36 -55 0 -9 -2 -26 -5 -39 -2 -13 0 -31 5 -40 6 -12 4 -24 -5 -37 -12 -16
-14 -38 -8 -106 l6 -86 -41 -16 c-22 -9 -55 -19 -73 -23 -18 -3 -40 -7 -48 -9
-8 -2 -18 -4 -23 -4 -21 -2 -47 -44 -47 -75 0 -31 4 -36 38 -47 69 -22 137
-57 161 -82 23 -25 23 -26 6 -77 -12 -36 -15 -67 -11 -108 4 -31 6 -83 6 -114
-1 -47 4 -64 24 -91 47 -61 33 -93 -68 -167 -56 -41 -58 -44 -52 -78 3 -19 9
-39 15 -45 5 -5 54 -9 109 -8 116 2 126 -4 124 -76 -1 -64 33 -151 64 -165 32
-15 32 -53 1 -62 -131 -39 -248 -59 -345 -59 -25 0 -42 -5 -42 -12 0 -19 100
-108 170 -151 69 -43 169 -87 235 -103 22 -6 89 -23 148 -37 84 -21 119 -35
155 -63 26 -20 48 -35 50 -33 8 7 22 0 22 -12 0 -21 40 -66 58 -66 41 -1 58
-43 41 -103 -7 -28 -17 -37 -52 -50 -84 -32 -94 -32 -104 0 -9 27 -5 73 11
121 8 23 6 24 -36 21 -49 -4 -85 -15 -143 -46 -49 -26 -70 -48 -90 -98 -21
-50 -15 -97 35 -240 40 -119 51 -174 55 -277 1 -37 8 -74 14 -82 35 -42 195
-72 286 -54 72 15 143 46 178 76 28 25 33 11 43 -133 9 -116 9 -147 1 -221 -7
-55 -5 -62 15 -82 20 -18 64 -41 93 -47 6 -2 44 -12 85 -23 41 -12 89 -23 105
-26 17 -3 41 -7 55 -10 85 -19 73 -17 235 -37 50 -6 100 -12 113 -14 14 -2 25
2 29 11 3 8 19 22 36 31 l31 16 37 -43 36 -42 209 -6 c258 -7 424 -7 574 1 63
3 157 6 208 6 102 1 91 -6 118 71 4 10 11 6 26 -18 24 -38 25 -38 98 -28 105
15 188 25 235 30 28 3 82 12 120 20 39 8 82 17 96 19 13 3 71 17 129 33 82 22
112 34 136 59 31 30 31 32 23 90 -8 54 -7 121 6 293 2 30 6 56 9 59 3 3 24 -6
48 -19 59 -34 126 -58 176 -62 39 -4 43 -2 56 27 8 18 17 42 21 55 8 26 20 29
22 5 4 -91 13 -109 40 -82 7 7 27 13 46 14 19 1 48 12 66 24 29 21 31 27 32
84 0 102 9 145 57 292 47 147 54 203 28 252 -34 66 -125 116 -238 130 -41 5
-44 2 -28 -28 14 -26 19 -99 9 -126 -8 -23 -8 -23 -55 -5 -42 15 -48 22 -60
62 -8 25 -12 50 -10 56 2 6 24 16 48 22 45 12 87 58 91 101 1 12 9 24 19 27
10 3 26 15 35 27 10 12 23 23 28 24 72 12 283 70 337 93 80 34 183 101 245
158 60 56 59 66 -7 68 -67 2 -202 22 -251 36 l-35 10 4 57 c2 31 10 61 16 66
21 17 37 54 42 98 3 23 10 47 15 52 6 6 50 10 99 10 95 0 108 5 116 49 4 22
-2 33 -32 59 -20 18 -49 51 -65 74 l-30 43 24 42 c19 34 23 53 20 93 -6 75 -6
77 11 121 11 31 13 51 6 74 -8 28 0 70 14 70 18 0 144 54 152 65 24 33 4 65
-60 97 -33 17 -73 43 -88 59 -24 25 -26 32 -17 58 14 39 6 118 -15 158 -9 18
-16 54 -16 80 0 29 -8 65 -20 87 -24 49 -18 63 70 141 77 68 86 85 59 114 -11
12 -23 21 -27 21 -4 1 -41 2 -82 4 -109 4 -129 22 -135 127 -1 19 -8 46 -15
60 -9 18 -4 16 21 -11 105 -111 233 -151 329 -103 66 34 71 73 8 73 -44 0
-133 48 -178 97 -23 23 -37 43 -31 43 5 0 12 -4 15 -9 13 -20 101 -28 191 -18
152 17 319 117 413 246 88 121 132 247 132 379 0 128 -41 235 -129 332 -27 30
-48 56 -46 58 1 2 15 5 31 8 16 3 30 8 32 12 5 13 27 49 55 90 36 51 38 100 6
146 -29 43 -71 68 -113 68 -36 0 -116 -36 -116 -53 0 -6 -3 -8 -7 -6 -16 9
-53 -13 -53 -32 0 -11 -17 -33 -38 -50 l-39 -30 -31 20 c-18 10 -38 19 -45 19
-18 0 -171 123 -237 190 -31 31 -62 70 -69 88 -15 35 -36 42 -45 14 -8 -25 -2
-50 31 -123 35 -76 137 -186 231 -248 34 -23 62 -43 62 -45 0 -6 -90 -61 -155
-95 -86 -45 -165 -110 -225 -183 -82 -99 -163 -189 -181 -199 -20 -10 -31 -1
-119 101 -148 171 -176 194 -201 164 -6 -8 -18 -14 -25 -14 -8 0 -14 -4 -14
-9 0 -20 -32 -19 -66 1 -26 15 -55 22 -99 23 -52 1 -68 6 -95 28 -22 19 -43
27 -71 27 -21 0 -39 4 -39 10 0 19 -51 42 -91 42 -23 -1 -52 3 -66 9 -24 9
-25 11 -19 82 3 39 10 86 14 102 12 43 5 63 -29 80 -37 19 -59 9 -88 -41 l-22
-37 -57 56 c-187 183 -229 213 -372 268 -58 23 -91 29 -148 29 -79 0 -79 0
-57 -52 5 -14 2 -18 -12 -18 -22 0 -53 -29 -53 -51 0 -27 -45 -134 -74 -176
-32 -47 -43 -50 -107 -27 -46 16 -121 13 -143 -5 -9 -7 -16 -7 -23 0 -16 16
-98 13 -126 -5 -13 -9 -31 -14 -40 -11 -17 7 -50 78 -67 147 -13 50 -36 78
-67 81 -19 1 -19 2 -1 39 22 46 23 64 2 72 -30 11 -99 5 -162 -15z m3399 -685
c93 -135 95 -275 6 -427 -77 -131 -265 -240 -397 -231 -89 6 -137 32 -213 115
-37 40 -67 78 -67 83 0 13 118 97 217 155 84 50 193 152 247 233 21 31 61 80
88 108 l49 51 21 -23 c11 -13 33 -42 49 -64z m-5636 24 c17 -18 56 -67 87
-108 31 -41 69 -88 84 -105 42 -44 134 -115 149 -115 8 0 15 -4 17 -8 2 -4 26
-21 53 -37 47 -27 106 -69 148 -106 17 -16 14 -20 -65 -101 -92 -94 -122 -108
-225 -108 -229 0 -465 252 -443 473 8 69 36 133 94 215 42 58 49 58 101 0z
m684 -829 c-6 -12 -13 -36 -16 -53 -9 -60 -27 -76 -89 -76 -65 0 -66 -4 30
103 55 62 71 75 78 63 5 -10 4 -24 -3 -37z m4239 -39 c7 -11 11 -20 9 -20 -2
0 -12 9 -22 20 -10 11 -14 20 -9 20 5 0 15 -9 22 -20z"/>
</g>
</svg>
